<svg width="60" height="60" viewBox="0 0 60 60" fill="none" xmlns="http://www.w3.org/2000/svg">
<path fill-rule="evenodd" clip-rule="evenodd" d="M30 0C13.4315 0 0 13.4315 0 30C0 46.5685 13.4315 60 30 60C46.5685 60 60 46.5685 60 30C60 13.4315 46.5685 0 30 0ZM29.9549 32.5241L18.7484 24.3894V41.5375H16.8761C15.8331 41.5375 15.0039 40.7084 15.0039 39.6653V20.7024C15.0039 20.6231 15.0087 20.5487 15.0181 20.4789C15.052 20.1814 15.1605 19.8902 15.3516 19.6326C15.9668 18.8035 17.1703 18.6163 18.0262 19.2314L29.9816 27.9238L42.0173 19.1244C42.8464 18.5093 44.0232 18.6965 44.6384 19.5524C44.9653 19.9931 45.0656 20.532 44.9593 21.0326V39.692C44.9593 40.7084 44.1302 41.5375 43.0871 41.5375H41.2149V24.3485L29.9549 32.5241Z" fill="white"/>
</svg>
